<svg xmlns="http://www.w3.org/2000/svg" width="286" height="199.558" viewBox="0 0 286 199.558">
  <g id="Illustration" transform="translate(0 0)">
    <path id="Caminho_316" data-name="Caminho 316" d="M278.836,128.888a67.431,67.431,0,0,0-81.026-9.124C223.78,129.06,252.434,129.4,278.836,128.888Z" transform="translate(-164.778 -103.378)" fill="#6c63ff" opacity="0.1"/>
    <path id="Caminho_317" data-name="Caminho 317" d="M889.413,598.813l-28.359-49.12a.9.9,0,0,0-1.567,0l-28.359,49.12a.9.9,0,0,0,.782,1.367h8.46a.908.908,0,0,1,.9.9v10.483a.905.905,0,0,0,.9.905h11.038a.905.905,0,0,0,.905-.905V606.5a.9.9,0,0,1,.9-.9h10.494a.9.9,0,0,1,.9.9v5.066a.9.9,0,0,0,.9.905h11.035a.9.9,0,0,0,.9-.905V601.074a.9.9,0,0,1,.905-.905h8.46a.905.905,0,0,0,.782-1.356Zm-39.548,5.436a.9.9,0,0,1-.64.273h-3.973a.905.905,0,0,1,0-1.81h3.981a.905.905,0,0,1,.64,1.545Zm26.052,0a.9.9,0,0,1-.64.273h-3.97a.905.905,0,0,1,0-1.81h3.987a.905.905,0,0,1,.64,1.545Z" transform="translate(-624.838 -422.324)" fill="#6c63ff" opacity="0.1"/>
    <path id="Caminho_318" data-name="Caminho 318" d="M258.932,600.4l-28.359-49.12a.9.9,0,0,0-1.567,0l-24.5,42.427a74.83,74.83,0,0,0,10.251,10.584h3.992a.905.905,0,0,1,0,1.81h-1.684a43.827,43.827,0,0,0,6.562,4.082v-2.092a.9.9,0,0,1,.905-.9h10.494a.9.9,0,0,1,.9.9v5.064a.881.881,0,0,0,.085.38.905.905,0,0,0,.82.525h11.038a.886.886,0,0,0,.719-.364.869.869,0,0,0,.183-.547V602.664a.905.905,0,0,1,.905-.905h8.46a.905.905,0,0,0,.79-1.359Zm-18.743,4.156a.9.9,0,0,1,.64-.273h3.981a.905.905,0,1,1,0,1.81h-3.984a.905.905,0,0,1-.64-1.545Zm-17.814-18.177a.905.905,0,0,1-.9-.9V578.6a.905.905,0,0,1,.9-.905h14.833a.905.905,0,0,1,.9.905v6.874a.9.9,0,0,1-.9.9Z" transform="translate(-169.646 -423.479)" fill="#6c63ff" opacity="0.1"/>
    <path id="Caminho_319" data-name="Caminho 319" d="M519.8,359.894H484.7V352.3a1.816,1.816,0,0,0-1.815-1.816H472.582V342.4a1.143,1.143,0,0,0-1.143-1.143H458.164a1.143,1.143,0,0,0-1.143,1.143v8.082H444.906a1.816,1.816,0,0,0-1.815,1.816v7.59H409.626a.369.369,0,0,0-.366.369V461.024a.369.369,0,0,0,.366.369h22.24a.369.369,0,0,0,.369-.369V447.468a.372.372,0,0,1,.369-.369H442a.372.372,0,0,1,.369.369v13.556a.369.369,0,0,0,.366.369h43.953a.372.372,0,0,0,.369-.369V447.468a.369.369,0,0,1,.366-.369h9.395a.369.369,0,0,1,.369.369v13.556a.372.372,0,0,0,.369.369H519.8a.372.372,0,0,0,.369-.369V360.263A.372.372,0,0,0,519.8,359.894Zm-91.542,82.5a.366.366,0,0,1-.366.366H414.151a.366.366,0,0,1-.369-.366v-4.684a.369.369,0,0,1,.369-.369h13.737a.369.369,0,0,1,.366.369Zm0-12.124a.366.366,0,0,1-.366.369H414.151a.366.366,0,0,1-.369-.369v-4.689a.366.366,0,0,1,.369-.369h13.737a.366.366,0,0,1,.366.369Zm0-12.121a.369.369,0,0,1-.366.369H414.151a.369.369,0,0,1-.369-.369v-4.692a.369.369,0,0,1,.369-.369h13.737a.369.369,0,0,1,.366.369Zm0-12.124a.366.366,0,0,1-.366.369H414.151a.366.366,0,0,1-.369-.369v-4.681a.366.366,0,0,1,.369-.369h13.737a.366.366,0,0,1,.366.369Zm0-12.121a.369.369,0,0,1-.366.369H414.151a.369.369,0,0,1-.369-.369V389.21a.366.366,0,0,1,.369-.366h13.737a.366.366,0,0,1,.366.366Zm0-12.121a.366.366,0,0,1-.366.366H414.151a.366.366,0,0,1-.369-.366v-4.692a.369.369,0,0,1,.369-.369h13.737a.369.369,0,0,1,.366.369Zm0-12.124a.366.366,0,0,1-.366.369H414.151a.366.366,0,0,1-.369-.369v-4.681a.366.366,0,0,1,.369-.369h13.737a.366.366,0,0,1,.366.369Zm32.567,72.73a.366.366,0,0,1-.369.366H446.716a.369.369,0,0,1-.369-.366v-4.681a.372.372,0,0,1,.369-.369h13.737a.369.369,0,0,1,.369.369Zm0-12.124a.366.366,0,0,1-.369.369H446.716a.369.369,0,0,1-.369-.369v-4.686a.369.369,0,0,1,.369-.369h13.737a.366.366,0,0,1,.369.369Zm0-12.121a.369.369,0,0,1-.369.369H446.716a.372.372,0,0,1-.369-.369v-4.689a.372.372,0,0,1,.369-.369h13.737a.369.369,0,0,1,.369.369Zm0-12.124a.366.366,0,0,1-.369.369H446.716a.369.369,0,0,1-.369-.369v-4.678a.369.369,0,0,1,.369-.369h13.737a.366.366,0,0,1,.369.369Zm0-12.121a.369.369,0,0,1-.369.369H446.716a.372.372,0,0,1-.369-.369V389.21a.369.369,0,0,1,.369-.366h13.737a.366.366,0,0,1,.369.366Zm0-12.121a.366.366,0,0,1-.369.366H446.716a.369.369,0,0,1-.369-.366v-4.689a.372.372,0,0,1,.369-.369h13.737a.369.369,0,0,1,.369.369Zm0-12.123a.366.366,0,0,1-.369.369H446.716a.369.369,0,0,1-.369-.369v-4.678a.369.369,0,0,1,.369-.369h13.737a.366.366,0,0,1,.369.369Zm22.254,72.73a.366.366,0,0,1-.369.366H468.97a.369.369,0,0,1-.369-.366v-4.678a.372.372,0,0,1,.369-.369h13.737a.369.369,0,0,1,.369.369Zm0-12.124a.366.366,0,0,1-.369.369H468.97a.369.369,0,0,1-.369-.369v-4.684a.369.369,0,0,1,.369-.369h13.737a.366.366,0,0,1,.369.369Zm0-12.121a.369.369,0,0,1-.369.369H468.97a.372.372,0,0,1-.369-.369v-4.686a.372.372,0,0,1,.369-.369h13.737a.369.369,0,0,1,.369.369Zm0-12.124a.366.366,0,0,1-.369.369H468.97a.369.369,0,0,1-.369-.369v-4.675a.369.369,0,0,1,.369-.369h13.737a.366.366,0,0,1,.369.369Zm0-12.121a.369.369,0,0,1-.369.369H468.97a.372.372,0,0,1-.369-.369V389.21a.369.369,0,0,1,.369-.366h13.737a.367.367,0,0,1,.369.366Zm0-12.121a.366.366,0,0,1-.369.366H468.97a.369.369,0,0,1-.369-.366v-4.686a.372.372,0,0,1,.369-.369h13.737a.369.369,0,0,1,.369.369Zm0-12.124a.366.366,0,0,1-.369.369H468.97a.369.369,0,0,1-.369-.369v-4.675a.369.369,0,0,1,.369-.369h13.737a.366.366,0,0,1,.369.369Zm32.567,72.73a.369.369,0,0,1-.369.366H501.537a.366.366,0,0,1-.369-.366v-4.675a.369.369,0,0,1,.369-.369h13.739a.372.372,0,0,1,.369.369Zm0-12.124a.369.369,0,0,1-.369.369H501.537a.366.366,0,0,1-.369-.369v-4.681a.366.366,0,0,1,.369-.369h13.739a.369.369,0,0,1,.369.369Zm0-12.121a.372.372,0,0,1-.369.369H501.537a.369.369,0,0,1-.369-.369v-4.684a.369.369,0,0,1,.369-.369h13.739a.372.372,0,0,1,.369.369Zm0-12.124a.369.369,0,0,1-.369.369H501.537a.366.366,0,0,1-.369-.369v-4.673a.366.366,0,0,1,.369-.369h13.739a.369.369,0,0,1,.369.369Zm0-12.121a.372.372,0,0,1-.369.369H501.537a.369.369,0,0,1-.369-.369V389.21a.366.366,0,0,1,.369-.366h13.739a.369.369,0,0,1,.369.366Zm0-12.121a.369.369,0,0,1-.367.375H501.537a.366.366,0,0,1-.369-.366v-4.692a.369.369,0,0,1,.369-.369h13.739a.372.372,0,0,1,.369.369Zm0-12.124a.369.369,0,0,1-.369.369H501.537a.366.366,0,0,1-.369-.369v-4.673a.366.366,0,0,1,.369-.369h13.739a.369.369,0,0,1,.369.369Z" transform="translate(-318.413 -271.212)" fill="#6c63ff" opacity="0.1"/>
    <path id="Caminho_320" data-name="Caminho 320" d="M384.969,281.513a7.9,7.9,0,0,0-4.585.5,6.756,6.756,0,0,1-5.531-.014,7.716,7.716,0,0,0-6.475.129,4.033,4.033,0,0,1-1.865.465c-2.625,0-4.81-2.644-5.263-6.133a5.034,5.034,0,0,0,1.312-1.414A7.372,7.372,0,0,1,375.725,275a5.061,5.061,0,0,0,4.361,2.4h.068C382.265,277.393,384.075,279.069,384.969,281.513Z" transform="translate(-283.53 -220.141)" fill="#6c63ff" opacity="0.1"/>
    <path id="Caminho_321" data-name="Caminho 321" d="M392.946,244.675l-4.243,2.69,2.576-4.684a4.194,4.194,0,0,0-2.567-.916h-.068a4.964,4.964,0,0,1-.88-.066l-1.433.913.618-1.121a5.113,5.113,0,0,1-2.515-1.914l-2.576,1.641,1.621-2.964a7.535,7.535,0,0,0-5.766-2.915,7.9,7.9,0,0,0-6.6,4.071,4.935,4.935,0,0,1-4.375,2.354h-.145c-2.956,0-5.351,3.349-5.351,7.484s2.4,7.484,5.351,7.484a4,4,0,0,0,1.865-.468,7.716,7.716,0,0,1,6.475-.126,6.757,6.757,0,0,0,5.507,0,7.713,7.713,0,0,1,6.42.123,4.006,4.006,0,0,0,1.843.457c2.956,0,5.351-3.352,5.351-7.484A9.5,9.5,0,0,0,392.946,244.675Z" transform="translate(-283.522 -194.253)" fill="#6c63ff" opacity="0.1"/>
    <path id="Caminho_322" data-name="Caminho 322" d="M864.926,472.411a5.553,5.553,0,0,0-3.21.347,4.722,4.722,0,0,1-3.855,0,5.4,5.4,0,0,0-4.533.09,2.81,2.81,0,0,1-1.3.325c-1.837,0-3.366-1.851-3.683-4.293a3.574,3.574,0,0,0,.919-.99,5.165,5.165,0,0,1,9.22-.033,3.538,3.538,0,0,0,3.051,1.676h.049C863.028,469.53,864.294,470.7,864.926,472.411Z" transform="translate(-637.438 -361.148)" fill="#6c63ff" opacity="0.1"/>
    <path id="Caminho_323" data-name="Caminho 323" d="M870.48,446.62l-2.969,1.884,1.8-3.281a2.936,2.936,0,0,0-1.8-.64h-.046a3.528,3.528,0,0,1-.615-.046l-1.009.637.432-.782a3.606,3.606,0,0,1-1.761-1.337l-1.807,1.137,1.138-2.07a5.249,5.249,0,0,0-4.036-2.042,5.522,5.522,0,0,0-4.621,2.852,3.451,3.451,0,0,1-3.054,1.641h-.09c-2.067,0-3.746,2.343-3.746,5.236s1.679,5.239,3.746,5.239a2.811,2.811,0,0,0,1.3-.325,5.392,5.392,0,0,1,4.533-.087,4.75,4.75,0,0,0,3.855,0,5.4,5.4,0,0,1,4.492.087,2.831,2.831,0,0,0,1.291.317c2.07,0,3.746-2.343,3.746-5.239A6.659,6.659,0,0,0,870.48,446.62Z" transform="translate(-637.409 -343.012)" fill="#6c63ff" opacity="0.1"/>
    <path id="Caminho_324" data-name="Caminho 324" d="M315.62,408.382a5.556,5.556,0,0,1,3.21.347,4.714,4.714,0,0,0,3.853,0,5.4,5.4,0,0,1,4.533.09,2.818,2.818,0,0,0,1.3.325c1.837,0,3.369-1.851,3.686-4.293a3.535,3.535,0,0,1-.919-.99,5.165,5.165,0,0,0-9.225-.044A3.554,3.554,0,0,1,319,405.5h-.047C317.5,405.5,316.235,406.674,315.62,408.382Z" transform="translate(-250.376 -314.618)" fill="#6c63ff" opacity="0.1"/>
    <path id="Caminho_325" data-name="Caminho 325" d="M293.054,382.613l2.969,1.876-1.8-3.281a2.942,2.942,0,0,1,1.8-.64h.049a3.553,3.553,0,0,0,.615-.046l1.006.637-.432-.782a3.612,3.612,0,0,0,1.764-1.337l1.8,1.143-1.14-2.07a5.276,5.276,0,0,1,4.038-2.042,5.522,5.522,0,0,1,4.621,2.852,3.448,3.448,0,0,0,3.054,1.641h.1c2.07,0,3.746,2.343,3.746,5.236s-1.676,5.239-3.746,5.239a2.827,2.827,0,0,1-1.3-.325,5.392,5.392,0,0,0-4.533-.087,4.744,4.744,0,0,1-3.853,0,5.405,5.405,0,0,0-4.5.088,2.822,2.822,0,0,1-1.291.317c-2.067,0-3.746-2.343-3.746-5.239A6.658,6.658,0,0,1,293.054,382.613Z" transform="translate(-233.41 -296.504)" fill="#6c63ff" opacity="0.1"/>
    <path id="Caminho_326" data-name="Caminho 326" d="M295.68,784.7c3.7,2.351,9.037-.027,12.763,2.289.962.6,1.739,1.474,2.734,2.015a8.834,8.834,0,0,0,3.959.82c11.38.44,22.951-2.734,34.047-.169,3.1.716,6.138,1.881,9.318,2.051,5.493.3,10.756-2.382,16.255-2.529,8.339-.224,16.534,5.356,24.581,3.155,2.647-.725,5.075-2.269,7.806-2.529,3.043-.273,5.969,1.053,8.927,1.826,10.491,2.734,21.417-1.7,32.264-2.026,7.073-.216,14.079,1.326,21.147,1.682a126.3,126.3,0,0,0,15.082-.451,11.347,11.347,0,0,0,5.52-1.348c1.6-1.05,2.587-3.306,1.6-4.946Z" transform="translate(-235.888 -593.289)" fill="#3f3d56"/>
    <path id="Caminho_327" data-name="Caminho 327" d="M295.68,784.7c3.7,2.351,9.037-.027,12.763,2.289.962.6,1.739,1.474,2.734,2.015a8.834,8.834,0,0,0,3.959.82c11.38.44,22.951-2.734,34.047-.169,3.1.716,6.138,1.881,9.318,2.051,5.493.3,10.756-2.382,16.255-2.529,8.339-.224,16.534,5.356,24.581,3.155,2.647-.725,5.075-2.269,7.806-2.529,3.043-.273,5.969,1.053,8.927,1.826,10.491,2.734,21.417-1.7,32.264-2.026,7.073-.216,14.079,1.326,21.147,1.682a126.3,126.3,0,0,0,15.082-.451,11.347,11.347,0,0,0,5.52-1.348c1.6-1.05,2.587-3.306,1.6-4.946Z" transform="translate(-235.888 -593.289)" opacity="0.1"/>
    <path id="Caminho_328" data-name="Caminho 328" d="M295.68,779.7c3.7,2.351,9.037-.027,12.763,2.289.962.6,1.739,1.474,2.734,2.015a8.834,8.834,0,0,0,3.959.82c11.38.44,22.951-2.734,34.047-.17,3.1.716,6.138,1.881,9.318,2.051,5.493.3,10.756-2.382,16.255-2.529,8.339-.224,16.534,5.356,24.581,3.155,2.647-.725,5.075-2.269,7.806-2.529,3.043-.273,5.969,1.053,8.927,1.826,10.491,2.734,21.417-1.7,32.264-2.026,7.073-.216,14.079,1.326,21.147,1.682a126.315,126.315,0,0,0,15.082-.451,11.348,11.348,0,0,0,5.52-1.348c1.6-1.05,2.587-3.306,1.6-4.946Z" transform="translate(-235.888 -589.656)" fill="#3f3d56"/>
    <g id="Agrupar_6" data-name="Agrupar 6" transform="translate(8.85 56.918)" opacity="0.1">
      <path id="Caminho_329" data-name="Caminho 329" d="M176.862,624.19a6.685,6.685,0,0,1-.883,3.385,6.928,6.928,0,0,1,0,6.77,6.219,6.219,0,0,1,.667,1.641,124.162,124.162,0,0,1-8.227-12.3h0a6.562,6.562,0,0,1,.864-2.887,6.685,6.685,0,0,1-.883-3.385,6.962,6.962,0,0,1,.4-2.354,5.853,5.853,0,0,1,.484-1.031,3.679,3.679,0,0,1,6.7,0,6.094,6.094,0,0,1,.473,1,7.008,7.008,0,0,1,.41,2.387,6.685,6.685,0,0,1-.883,3.385A6.685,6.685,0,0,1,176.862,624.19Z" transform="translate(-152.258 -524.749)" fill="#3f3d56"/>
      <ellipse id="Elipse_79" data-name="Elipse 79" cx="4.23" cy="5.54" rx="4.23" ry="5.54" transform="translate(16.141 80.365)" fill="#3f3d56"/>
      <ellipse id="Elipse_80" data-name="Elipse 80" cx="4.23" cy="5.54" rx="4.23" ry="5.54" transform="translate(16.141 73.595)" fill="#3f3d56"/>
      <path id="Caminho_330" data-name="Caminho 330" d="M149.916,338.562a20.173,20.173,0,0,1-4.339,12.531,20.269,20.269,0,0,1-12.031,32.42c-.487.1-.982.175-1.482.235a20.477,20.477,0,0,1-4.648.025q-.771-.082-1.523-.227a20.042,20.042,0,0,1-6.289-2.3,201.931,201.931,0,0,1-9.518-22.91,20.176,20.176,0,0,1,3.634-7.232,20.285,20.285,0,0,1-3.281-19.033l15.388,5.165-14.431-7.5a20.351,20.351,0,0,1,2.31-3.7,20.269,20.269,0,1,1,33.475-22.68L132.3,314.3l16.132-8.367a20.293,20.293,0,0,1-.388,16.058l-12.031-.09,11.117,1.826a20.352,20.352,0,0,1-1.578,2.319,20.179,20.179,0,0,1,4.358,12.517Z" transform="translate(-109.367 -293.239)" fill="#6c63ff"/>
      <path id="Caminho_331" data-name="Caminho 331" d="M149.955,483.279A20.273,20.273,0,0,1,133.6,503.167c-.49.1-.985.176-1.485.236a20.477,20.477,0,0,1-4.648.025q-.771-.082-1.523-.227a20.042,20.042,0,0,1-6.289-2.3,201.931,201.931,0,0,1-9.531-22.921,20.176,20.176,0,0,1,3.634-7.232,20.186,20.186,0,0,1-4.339-12.542c0-2.275,38.913,9.083,36.2,12.531A20.173,20.173,0,0,1,149.955,483.279Z" transform="translate(-109.405 -412.884)" opacity="0.1"/>
    </g>
    <g id="Agrupar_7" data-name="Agrupar 7" transform="translate(258.472 78.675)" opacity="0.1">
      <path id="Caminho_332" data-name="Caminho 332" d="M1084.271,637.65c-.793,2.532-1.641,5.045-2.51,7.5a7.011,7.011,0,0,1-.361-2.245A5.638,5.638,0,0,1,1084.271,637.65Z" transform="translate(-1065.247 -565.237)" fill="#3f3d56"/>
      <path id="Caminho_333" data-name="Caminho 333" d="M1049.849,401.6c0,4.8-.968,12.381-2.734,21.054a231.265,231.265,0,0,1-5.783,22.574c-.793,2.532-1.641,5.045-2.51,7.5-1,2.789-2.051,5.5-3.152,8.1a20.345,20.345,0,0,1-9-31.654,20.364,20.364,0,0,1-3.281-19.074l15.388,5.176-14.431-7.514a20.415,20.415,0,0,1,2.31-3.7,20.343,20.343,0,0,1,7.962-31.239,34.876,34.876,0,0,1,13.329,17.48l-2.666,1.985,2.86-1.485a34.709,34.709,0,0,1,1.665,9.108h-.8l.82.134C1049.849,400.549,1049.849,401.068,1049.849,401.6Z" transform="translate(-1022.321 -372.81)" fill="#6c63ff"/>
      <path id="Caminho_334" data-name="Caminho 334" d="M1047.2,538.251a231.2,231.2,0,0,1-5.783,22.574c-.793,2.532-1.64,5.045-2.51,7.5-1,2.789-2.051,5.5-3.152,8.1a20.345,20.345,0,0,1-9-31.654,20.261,20.261,0,0,1-4.337-12.556C1022.42,530.844,1036.561,534.425,1047.2,538.251Z" transform="translate(-1022.393 -488.411)" opacity="0.1"/>
    </g>
    <path id="Caminho_335" data-name="Caminho 335" d="M362.964,235.922v-.129a34.7,34.7,0,0,0-1.665-9.108c-.055-.167-.109-.336-.167-.5a34.709,34.709,0,0,0-58.761-11.864,49.056,49.056,0,0,0-2.764-9.7,155.747,155.747,0,0,1-27.514,1.025,111.006,111.006,0,0,0,17.444,6.335l-.213.793a112.025,112.025,0,0,1-19.5-7.3l-1.889-.916,2.094.137a155.794,155.794,0,0,0,29.256-.839,49.332,49.332,0,0,0-8.618-13.693c-15.738-1.586-31.353-4.889-45.935-11.437l.336-.746c14.193,6.379,29.4,9.657,44.759,11.27a49.15,49.15,0,0,0-78.125,8.3,67.505,67.505,0,0,0-16.744-37.978,157.66,157.66,0,0,1-25.912,7.85,156.712,156.712,0,0,1-40.5,3.224,111.008,111.008,0,0,0,17.444,6.335l-.213.793a112.024,112.024,0,0,1-19.5-7.3l-1.889-.916,2.094.137a155.635,155.635,0,0,0,67.907-10.759q-1.217-1.332-2.5-2.6c-26.91.547-56.218.273-82.751-9.387A67.68,67.68,0,0,0,77,204.607c0,12.7,3.492,30.172,9.57,47.7a202.676,202.676,0,0,0,9.545,22.968c1.857,3.773,3.828,7.44,5.9,10.951h0a124.287,124.287,0,0,0,8.227,12.3q.8,1.058,1.627,2.078a75.06,75.06,0,0,0,10.248,10.628h0q1.14.951,2.294,1.813a43.694,43.694,0,0,0,6.562,4.1,30.259,30.259,0,0,0,12.386,3.358c.339.014.681.022,1.02.022v.139h183.74v-.139h.137a9.3,9.3,0,0,0,3.106-.547c6.5-2.3,12.479-11.56,17.453-23.257,1.094-2.595,2.155-5.307,3.153-8.1.88-2.461,1.717-4.968,2.51-7.5a231.248,231.248,0,0,0,5.783-22.574c1.753-8.673,2.734-16.255,2.734-21.053C363,236.963,363,236.444,362.964,235.922Z" transform="translate(-77 -130.031)" fill="#445ee9" opacity="0.1"/>
    <path id="Caminho_336" data-name="Caminho 336" d="M362.7,728.137l5.233-3.079a12.611,12.611,0,0,0-2.677-3.2l-9.873,3.07,7.738-4.547a12.577,12.577,0,0,0-18.62,11.033c0,6.945,5.63,7.185,12.577,7.185s12.577-.241,12.577-7.186a12.52,12.52,0,0,0-1.08-5.1Z" transform="translate(-271.359 -545.548)" fill="#6c63ff"/>
    <path id="Caminho_337" data-name="Caminho 337" d="M364.009,756.306a9.777,9.777,0,0,0-1.854-1.455,8.633,8.633,0,0,0-3.054-1.49,22.917,22.917,0,0,0-3.008-.088,7.016,7.016,0,0,1-4.6-2.105,14.356,14.356,0,0,0-2.135-2.212,4.7,4.7,0,0,0-3.2-.588,7.951,7.951,0,0,0-.946.194,12.537,12.537,0,0,0-.744,4.268c0,6.945,5.63,7.186,12.577,7.186,3.371,0,6.431-.057,8.689-.908l-.377-.705A9.954,9.954,0,0,0,364.009,756.306Z" transform="translate(-271.338 -566.967)" opacity="0.1"/>
    <circle id="Elipse_81" data-name="Elipse 81" cx="9.775" cy="9.775" r="9.775" transform="translate(139.88 41.019)" fill="#3f3d56"/>
    <path id="Caminho_338" data-name="Caminho 338" d="M561.722,532.263c1.009,7.079-.221,14.3-2.138,21.185a15.725,15.725,0,0,1-1.414,3.727,39.7,39.7,0,0,1-2.39,3.224,27.99,27.99,0,0,0-3.5,7.557,213.15,213.15,0,0,0-6.24,22.235,1.524,1.524,0,0,0,0,.949c.238.547.96.618,1.553.615l7.672-.041c.273-.525-.232-1.094-.547-1.6-1.094-1.7-.044-3.91.921-5.69a61.176,61.176,0,0,0,5.408-13.671,37.061,37.061,0,0,1,1.8-5.941,59.633,59.633,0,0,1,3.959-6.406,53.661,53.661,0,0,0,3.743-7.91,51.253,51.253,0,0,0,3.7-11.607,46.366,46.366,0,0,0-.082-11.432.722.722,0,0,0-.837-.82l-10.294-.53c-2.122-.109-2.625-.574-2.3,1.509C560.968,529.174,561.5,530.688,561.722,532.263Z" transform="translate(-417.738 -405.431)" fill="#3f3d56"/>
    <path id="Caminho_339" data-name="Caminho 339" d="M561.722,532.263c1.009,7.079-.221,14.3-2.138,21.185a15.725,15.725,0,0,1-1.414,3.727,39.7,39.7,0,0,1-2.39,3.224,27.99,27.99,0,0,0-3.5,7.557,213.15,213.15,0,0,0-6.24,22.235,1.524,1.524,0,0,0,0,.949c.238.547.96.618,1.553.615l7.672-.041c.273-.525-.232-1.094-.547-1.6-1.094-1.7-.044-3.91.921-5.69a61.176,61.176,0,0,0,5.408-13.671,37.061,37.061,0,0,1,1.8-5.941,59.633,59.633,0,0,1,3.959-6.406,53.661,53.661,0,0,0,3.743-7.91,51.253,51.253,0,0,0,3.7-11.607,46.366,46.366,0,0,0-.082-11.432.722.722,0,0,0-.837-.82l-10.294-.53c-2.122-.109-2.625-.574-2.3,1.509C560.968,529.174,561.5,530.688,561.722,532.263Z" transform="translate(-417.738 -405.431)" fill="#000f5d"/>
    <path id="Caminho_340" data-name="Caminho 340" d="M601.112,483.961c-2.092,3.008-4.285,6.469-3.59,10.07.528,2.734,2.611,4.853,4.577,6.836,7.858,7.891,15.585,16.657,18.259,27.471.689,2.794,1.023,5.663,1.616,8.476a93.6,93.6,0,0,0,4.922,14.86l5.129,12.947a7.754,7.754,0,0,0,7.41-4.922,3.245,3.245,0,0,1-1.944-1.25c-2.187-3.027-2.636-6.92-3.2-10.612-.621-4.079-1.449-8.126-2.28-12.17l-3.675-17.893c-.424-2.064-.848-4.131-1.4-6.166-2.138-7.88-6.19-15.312-6.816-23.46a5.51,5.51,0,0,0-.962-3.4,5,5,0,0,0-3.519-1.168C610.52,483.253,606.1,482.753,601.112,483.961Z" transform="translate(-455.104 -374.338)" fill="#000f5d"/>
    <path id="Caminho_341" data-name="Caminho 341" d="M543.889,756.324a8.157,8.157,0,0,0-1.7-.219,3.533,3.533,0,0,0-2.778,1.518,6.9,6.9,0,0,0-.746,1.641l-.741,2.127a2.366,2.366,0,0,0-.107,1.914,2.029,2.029,0,0,0,1,.768,18.48,18.48,0,0,0,5.769,1.034c1.9.186,3.779.519,5.652.869.645.123,1.288.246,1.941.312a23.135,23.135,0,0,0,4.391-.131l1.507-.145a5.42,5.42,0,0,0,1.482-.273,1.868,1.868,0,0,0,1.094-.982,1.773,1.773,0,0,0-1.4-2.2c-.4-.077-.82-.041-1.208-.093a5.7,5.7,0,0,1-1.323-.4,26.386,26.386,0,0,1-5.57-2.715c-.47-.331-.962-.793-.91-1.367a2.786,2.786,0,0,1,.243-.708,2.586,2.586,0,0,0,.022-1.829c-.093-.252-.273-.517-.528-.547-.722-.087-.634.965-.741,1.367-.145.547-.407.6-.921.547C546.831,756.676,545.355,756.6,543.889,756.324Z" transform="translate(-411.698 -571.747)" fill="#f2f2f2"/>
    <path id="Caminho_342" data-name="Caminho 342" d="M718.263,761.107a4.826,4.826,0,0,0,1.044,2.939,2.286,2.286,0,0,0,.744.6,2.987,2.987,0,0,0,1.367.216,10.952,10.952,0,0,0,3.8-.768,10.858,10.858,0,0,1,1.312-.495,14.723,14.723,0,0,1,1.706-.246c2.261-.325,4.246-1.66,6.431-2.335a13.519,13.519,0,0,0,1.914-.629,8.773,8.773,0,0,0,2.25-1.758,4.038,4.038,0,0,0,1.477-3.724.708.708,0,0,0-.066-.385.574.574,0,0,0-.246-.194,3.569,3.569,0,0,0-2.187-.036,38.877,38.877,0,0,1-8.077.3,1.173,1.173,0,0,1-1.241-.708l-1.025-1.64c-.293-.47-.757-1.009-1.288-.848a1.049,1.049,0,0,0-.58,1.094,5.846,5.846,0,0,1,.068,1.323,1.808,1.808,0,0,1-.875,1.137,5.589,5.589,0,0,1-1.367.525,10.5,10.5,0,0,0-4.432,2.021C718.131,758.28,718.211,760.044,718.263,761.107Z" transform="translate(-542.906 -569.184)" fill="#f2f2f2"/>
    <path id="Caminho_343" data-name="Caminho 343" d="M688.385,358.668a6.333,6.333,0,0,0,1.493-1.624,6.622,6.622,0,0,0,.637-2.245l.429-2.712a8.171,8.171,0,0,1,1.515-4.219c1-1.14,2.986-1.548,4-.421a3.51,3.51,0,0,1,.727,1.815,13.217,13.217,0,0,1-3.232,10.937c-1.228,1.345-2.734,2.414-4.033,3.686-1.132,1.094-2.114,2.349-3.158,3.538a43.587,43.587,0,0,1-8.6,7.519,38.623,38.623,0,0,0,0-6.237c-.221-1.46-.82-2.248.593-3.2A108.431,108.431,0,0,0,688.385,358.668Z" transform="translate(-513.559 -275.222)" fill="#fbbebe"/>
    <path id="Caminho_344" data-name="Caminho 344" d="M610.474,305.717a5,5,0,0,1-1.914,3.781q5.11,1.788,10.081,3.943a3.492,3.492,0,0,1-.864-2.444,12.339,12.339,0,0,1,1.887-6.589,1.6,1.6,0,0,0,.309-.87c-.038-.645-.8-.943-1.433-1.094A35.239,35.239,0,0,0,612,301.5c-.943-.03-2.062-.328-1.848.872A13.2,13.2,0,0,1,610.474,305.717Z" transform="translate(-463.22 -242.281)" fill="#fbbebe"/>
    <circle id="Elipse_82" data-name="Elipse 82" cx="7.992" cy="7.992" r="7.992" transform="translate(145.852 48.232)" fill="#fbbebe"/>
    <path id="Caminho_345" data-name="Caminho 345" d="M616.742,335.832a9.665,9.665,0,0,0-1.014-1.7,35.375,35.375,0,0,0-4.8-5.881,29.854,29.854,0,0,0-4.552-3.344,10.333,10.333,0,0,0-2.849-1.367,11.141,11.141,0,0,0-1.829-.249l-2.075-.17a1.7,1.7,0,0,0-.547.016,1.179,1.179,0,0,0-.7,1.408A3.464,3.464,0,0,0,599.3,326c.093,4.235-1.791,8.413-2.045,12.643-.446,7.4,4.069,14.275,4.429,21.677a2.338,2.338,0,0,1-.1.993c-.06.153-.15.293-.219.443a4.328,4.328,0,0,0-.243,1.5,7.64,7.64,0,0,1-2.25,4.818,3.344,3.344,0,0,0,1.269.968,22.883,22.883,0,0,0,2.841.678,22.054,22.054,0,0,0,7.407,1.266,6.535,6.535,0,0,0,.571-2.152c.355-.221.766.252.82.667s-.025.9.273,1.2a1.125,1.125,0,0,0,1.039.208,45.947,45.947,0,0,0,4.511-1.058,8.415,8.415,0,0,1,4.574-.016,1.224,1.224,0,0,0-.071-1.34,5.986,5.986,0,0,1-.719-1.228,2.754,2.754,0,0,1-.088-.807c0-2.338.481-4.7.025-6.994-.134-.673-.347-1.329-.484-2a17.29,17.29,0,0,1-.2-4c.036-1.337-.126-2.783-.153-4.14a13.211,13.211,0,0,0-.109-1.676c-.093-.582-.273-1.151-.323-1.739-.148-1.493.454-2.975.364-4.473C620.272,339.165,617.628,337.929,616.742,335.832Z" transform="translate(-454.985 -258.022)" fill="#ff6f61"/>
    <path id="Caminho_346" data-name="Caminho 346" d="M573.964,365.545c-1.936,5.135-2.882,10.581-3.828,15.99l-2.187,12.7a61.473,61.473,0,0,0-1.22,10.844,11.6,11.6,0,0,1-.2,3.051,16.481,16.481,0,0,1-1.878,3.554,11.7,11.7,0,0,0-1.258,7.91c.224,1.135.837,2.423,1.988,2.554a2.754,2.754,0,0,0,2.316-1.425,18.348,18.348,0,0,0,2.461-6.045,136.75,136.75,0,0,0,3.792-21.078,20.522,20.522,0,0,1,.38-2.68,19.018,19.018,0,0,1,.924-2.669q1.255-3.112,2.513-6.223a99.407,99.407,0,0,1,6.532-14.043c-2.625-.755-5.356-1.641-7.981-2.387A7.209,7.209,0,0,0,573.964,365.545Z" transform="translate(-430.245 -288.806)" fill="#fbbebe"/>
    <path id="Caminho_347" data-name="Caminho 347" d="M601.735,363.87a30.037,30.037,0,0,0-5.613-.32,1.211,1.211,0,0,1-.755-.2c-.38-.325-.219-.935-.027-1.4l.908-2.187a3.183,3.183,0,0,1,.727-1.208,3.085,3.085,0,0,1,1.725-.585,15.631,15.631,0,0,1,5.977.232,7.149,7.149,0,0,1,4.615,3.576,2.434,2.434,0,0,1,.049,2.392c-.711,1.02-2.3,2.16-3.494,1.6C604.422,365.1,603.331,364.209,601.735,363.87Z" transform="translate(-453.466 -283.23)" fill="#ff6f61"/>
    <path id="Caminho_348" data-name="Caminho 348" d="M588.186,230.447a8.071,8.071,0,0,0-4.457,1.285,9.775,9.775,0,0,0-9.6-2.248,5.586,5.586,0,1,0-6.453,6.464,9.775,9.775,0,0,0,18.762,5.493,8.746,8.746,0,0,0,1.753.178c3.855,0,6.983-2.5,6.983-5.586S592.036,230.447,588.186,230.447Z" transform="translate(-430.148 -186.636)" fill="#3f3d56"/>
    <path id="Caminho_349" data-name="Caminho 349" d="M652.032,270.113a8.5,8.5,0,0,1-1.753-.178,9.726,9.726,0,0,1-1.28,2.814,8.777,8.777,0,0,0,1.641.159c3.6,0,6.562-2.187,6.942-4.987A7.7,7.7,0,0,1,652.032,270.113Z" transform="translate(-492.602 -217.925)" opacity="0.1"/>
    <path id="Caminho_350" data-name="Caminho 350" d="M578.413,250.576a9.789,9.789,0,0,1-9.346-12.654,5.586,5.586,0,0,1-4.618-5.5,5.492,5.492,0,0,1,.09-1,5.586,5.586,0,0,0,3.133,9.3,9.775,9.775,0,1,0,18.672,5.791,9.756,9.756,0,0,1-7.932,4.069Z" transform="translate(-430.155 -191.405)" opacity="0.1"/>
    <rect id="Retângulo_3" data-name="Retângulo 3" width="0.183" height="1.515" rx="0.092" transform="matrix(0.814, 0.581, -0.581, 0.814, 183.819, 75.47)" fill="#3a3768"/>
    <rect id="Retângulo_4" data-name="Retângulo 4" width="0.104" height="0.498" rx="0.052" transform="matrix(0.814, 0.581, -0.581, 0.814, 179.538, 70.956)" fill="#3a3768"/>
    <rect id="Retângulo_5" data-name="Retângulo 5" width="0.115" height="0.867" rx="0.057" transform="matrix(0.814, 0.581, -0.581, 0.814, 179.002, 71.7)" fill="#3a3768"/>
    <rect id="Retângulo_6" data-name="Retângulo 6" width="0.109" height="0.875" rx="0.055" transform="matrix(0.814, 0.581, -0.581, 0.814, 178.326, 72.655)" fill="#3a3768"/>
    <rect id="Retângulo_7" data-name="Retângulo 7" width="6.147" height="12.493" rx="2.52" transform="matrix(0.814, 0.581, -0.581, 0.814, 180.797, 70.16)" fill="#3a3768"/>
    <rect id="Retângulo_8" data-name="Retângulo 8" width="6.147" height="12.493" rx="2.52" transform="matrix(0.814, 0.581, -0.581, 0.814, 180.797, 70.16)" opacity="0.1"/>
    <rect id="Retângulo_9" data-name="Retângulo 9" width="6.147" height="12.493" rx="2.52" transform="matrix(0.814, 0.581, -0.581, 0.814, 180.543, 69.651)" fill="#3a3768"/>
    <path id="Caminho_351" data-name="Caminho 351" d="M723.934,344.948l-.571-.41-.049.068a.4.4,0,0,1-.547.1l-1.826-1.3a.4.4,0,0,1-.093-.561l.049-.068-.547-.383a.487.487,0,0,0-.681.112l-6.31,8.845a.489.489,0,0,0,.112.681l3.593,2.562a.487.487,0,0,0,.681-.115l6.311-8.842a.487.487,0,0,0-.12-.681Z" transform="translate(-539.298 -271.963)" fill="#6c63ff"/>
    <rect id="Retângulo_10" data-name="Retângulo 10" width="0.859" height="0.175" rx="0.087" transform="matrix(0.814, 0.581, -0.581, 0.814, 182.344, 71.397)" fill="#e6e8ec"/>
    <circle id="Elipse_83" data-name="Elipse 83" cx="0.098" cy="0.098" r="0.098" transform="translate(183.067 72.009)" fill="#e6e8ec"/>
    <path id="Caminho_352" data-name="Caminho 352" d="M698.319,99A18.319,18.319,0,0,0,680,117.319c0,10.117,19.194,43.622,19.194,43.622s17.444-33.491,17.444-43.622A18.319,18.319,0,0,0,698.319,99Zm0,30.536a3.976,3.976,0,1,1,0,.008Z" transform="translate(-515.126 -95.191)" fill="#6c63ff"/>
    <path id="Caminho_353" data-name="Caminho 353" d="M698.319,99A18.319,18.319,0,0,0,680,117.319c0,10.117,19.194,43.622,19.194,43.622s17.444-33.491,17.444-43.622A18.319,18.319,0,0,0,698.319,99Zm0,30.536a3.976,3.976,0,1,1,0,.008Z" transform="translate(-515.126 -95.191)" opacity="0.1"/>
    <path id="Caminho_354" data-name="Caminho 354" d="M698.319,85.07A18.319,18.319,0,0,0,680,103.389c0,10.117,19.194,47.439,19.194,47.439s17.444-37.317,17.444-47.436A18.32,18.32,0,0,0,698.317,85.07Zm0,30.536a9.6,9.6,0,1,1,9.6-9.6A9.6,9.6,0,0,1,698.319,115.606Z" transform="translate(-515.126 -85.07)" fill="#6c63ff"/>
  </g>
</svg>
